<?xml version="1.0" encoding="UTF-8" standalone="no"?>
<!-- Created with Inkscape (http://www.inkscape.org/) -->

<svg
   width="16.933332mm"
   height="16.933332mm"
   viewBox="0 0 16.933332 16.933332"
   version="1.1"
   id="svg1"
   inkscape:version="1.4 (86a8ad7, 2024-10-11)"
   sodipodi:docname="favicon-craftools.svg"
   xmlns:inkscape="http://www.inkscape.org/namespaces/inkscape"
   xmlns:sodipodi="http://sodipodi.sourceforge.net/DTD/sodipodi-0.dtd"
   xmlns:xlink="http://www.w3.org/1999/xlink"
   xmlns="http://www.w3.org/2000/svg"
   xmlns:svg="http://www.w3.org/2000/svg">
  <sodipodi:namedview
     id="namedview1"
     pagecolor="#ffffff"
     bordercolor="#000000"
     borderopacity="0.25"
     inkscape:showpageshadow="2"
     inkscape:pageopacity="0.0"
     inkscape:pagecheckerboard="0"
     inkscape:deskcolor="#d1d1d1"
     inkscape:document-units="mm"
     inkscape:zoom="3.0992466"
     inkscape:cx="118.09322"
     inkscape:cy="35.653826"
     inkscape:window-width="1440"
     inkscape:window-height="837"
     inkscape:window-x="-8"
     inkscape:window-y="-8"
     inkscape:window-maximized="1"
     inkscape:current-layer="layer1" />
  <defs
     id="defs1">
    <linearGradient
       id="linearGradient269"
       inkscape:collect="always">
      <stop
         style="stop-color:#d75b06;stop-opacity:1;"
         offset="0"
         id="stop269" />
      <stop
         style="stop-color:#f97316;stop-opacity:1;"
         offset="1"
         id="stop268" />
    </linearGradient>
    <radialGradient
       inkscape:collect="always"
       xlink:href="#linearGradient269"
       id="radialGradient1"
       gradientUnits="userSpaceOnUse"
       gradientTransform="matrix(1,0,0,0.15219165,0.98221551,82.745831)"
       cx="937.26489"
       cy="70.898216"
       fx="937.26489"
       fy="70.898216"
       r="34.953053" />
    <radialGradient
       inkscape:collect="always"
       xlink:href="#linearGradient269"
       id="radialGradient2"
       gradientUnits="userSpaceOnUse"
       gradientTransform="matrix(1,0,0,0.15219165,0.98221551,82.745831)"
       cx="937.26489"
       cy="70.898216"
       fx="937.26489"
       fy="70.898216"
       r="34.953053" />
    <radialGradient
       inkscape:collect="always"
       xlink:href="#linearGradient269"
       id="radialGradient4"
       gradientUnits="userSpaceOnUse"
       gradientTransform="matrix(1,0,0,0.15219165,0.98221551,82.745831)"
       cx="937.26489"
       cy="70.898216"
       fx="937.26489"
       fy="70.898216"
       r="34.953053" />
    <radialGradient
       inkscape:collect="always"
       xlink:href="#linearGradient269"
       id="radialGradient6"
       gradientUnits="userSpaceOnUse"
       gradientTransform="matrix(1,0,0,0.15219165,0.98221551,82.745831)"
       cx="937.26489"
       cy="70.898216"
       fx="937.26489"
       fy="70.898216"
       r="34.953053" />
    <radialGradient
       inkscape:collect="always"
       xlink:href="#linearGradient269"
       id="radialGradient8"
       gradientUnits="userSpaceOnUse"
       gradientTransform="matrix(1,0,0,0.15219165,0.98221551,82.745831)"
       cx="937.26489"
       cy="70.898216"
       fx="937.26489"
       fy="70.898216"
       r="34.953053" />
    <radialGradient
       inkscape:collect="always"
       xlink:href="#linearGradient269"
       id="radialGradient10"
       gradientUnits="userSpaceOnUse"
       gradientTransform="matrix(1,0,0,0.15219165,0.98221551,82.745831)"
       cx="937.26489"
       cy="70.898216"
       fx="937.26489"
       fy="70.898216"
       r="34.953053" />
    <radialGradient
       inkscape:collect="always"
       xlink:href="#linearGradient269"
       id="radialGradient274"
       cx="937.26489"
       cy="111.6599"
       fx="937.26489"
       fy="111.6599"
       r="3.7946212"
       gradientTransform="matrix(1.1191048,0,0,1.5688385,-1038.9505,-166.70968)"
       gradientUnits="userSpaceOnUse" />
  </defs>
  <g
     inkscape:label="Camada 1"
     inkscape:groupmode="layer"
     id="layer1">
    <path
       style="font-size:14.1855px;line-height:1;font-family:Kikuta;-inkscape-font-specification:Kikuta;text-align:center;letter-spacing:0px;text-anchor:middle;fill:url(#radialGradient274);stroke-width:3.21428;stroke-miterlimit:1;stroke-dasharray:6.42855, 3.21428;paint-order:fill markers stroke"
       d="m 2.7396087,12.879921 c 0,0.26459 0.068825,0.492127 0.2063741,0.682621 0.1481583,0.190505 0.3333701,0.34925 0.5556243,0.476258 0.2328298,0.127006 0.486833,0.222253 0.7619984,0.285751 0.2751654,0.06345 0.5450488,0.09524 0.8096275,0.09524 h 6.691609 c 0.275165,0 0.555624,-0.03179 0.841376,-0.09524 0.296328,-0.07408 0.560919,-0.179919 0.793748,-0.317501 0.232829,-0.148169 0.423334,-0.328087 0.571505,-0.539755 0.148169,-0.222244 0.222253,-0.476246 0.222253,-0.761999 V 11.11779 c 0,-0.158745 -0.04229,-0.301621 -0.127007,-0.428628 -0.0846,-0.127008 -0.195787,-0.232841 -0.333369,-0.317502 -0.137584,-0.09524 -0.28046,-0.164038 -0.428629,-0.206374 -0.14817,-0.0423 -0.296339,-0.06345 -0.444497,-0.06345 -0.296339,0 -0.571505,0.09524 -0.825508,0.285741 -0.254003,0.179919 -0.380999,0.423346 -0.380999,0.730261 0,0.148158 -0.03704,0.285741 -0.111128,0.412748 -0.07408,0.127007 -0.174625,0.238134 -0.301621,0.333381 -0.11642,0.0846 -0.254003,0.153452 -0.412759,0.206374 -0.148158,0.0423 -0.301621,0.06345 -0.460377,0.06345 -0.328088,0 -0.6244161,-0.09524 -0.8889948,-0.285752 C 9.224832,11.657534 9.0978246,11.419411 9.0978246,11.133659 V 5.2598919 c 0,-0.2857522 0.1270074,-0.5185819 0.3810106,-0.6985004 0.2645787,-0.1905051 0.5556248,-0.2857522 0.8731258,-0.2857522 0.169331,0 0.328088,0.026411 0.476246,0.079345 0.158756,0.042302 0.296339,0.1111271 0.412759,0.2063853 0.126996,0.084716 0.227537,0.190494 0.301621,0.3175012 0.07409,0.1164204 0.111128,0.2487098 0.111128,0.3968681 0,0.3069145 0.126996,0.5556244 0.380999,0.7461295 0.254003,0.1905052 0.529169,0.2857522 0.825508,0.2857522 0.148158,0 0.296327,-0.021151 0.444497,-0.063453 0.148169,-0.042303 0.291045,-0.1057559 0.428629,-0.1905056 0.137582,-0.095236 0.248708,-0.2063741 0.333369,-0.3333701 0.08472,-0.1270071 0.127007,-0.2698833 0.127007,-0.4286283 V 4.0375273 c 0,-0.2645787 -0.07408,-0.4921151 -0.222253,-0.6826202 C 13.8233,3.1644019 13.632795,3.0056568 13.399966,2.8786497 13.177723,2.7516536 12.92372,2.6617 12.637967,2.6087775 12.362801,2.5453243 12.09293,2.5135417 11.82834,2.5135417 H 5.073233 c -0.2645787,0 -0.5344621,0.031783 -0.8096275,0.095236 C 3.9884401,2.6722308 3.7344369,2.7675226 3.5016071,2.8945297 3.2793529,3.0215258 3.0941411,3.1802708 2.9459828,3.370776 2.8084001,3.5612811 2.7396087,3.7888176 2.7396087,4.0534074 Z"
       id="text274"
       aria-label="C"
       sodipodi:nodetypes="sccssscccssscsscssccscsscscccsssscssssccsssccss" />
  </g>
</svg>
